<svg fill="none" height="64" viewBox="0 0 64 64" width="64" xmlns="http://www.w3.org/2000/svg" xmlns:xlink="http://www.w3.org/1999/xlink"><linearGradient id="a" gradientUnits="userSpaceOnUse" x1="0" x2="64" y1="32" y2="32"><stop offset="0" stop-color="#5c5cff"/><stop offset="1" stop-color="#8960ff"/></linearGradient><clipPath id="b"><path d="m17 14h27v34h-27z"/></clipPath><path d="m0 0h64v64h-64z" fill="#fff"/><path d="m0 0h64v64h-64z" fill="url(#a)"/><g clip-path="url(#b)" fill="#fff"><path d="m28.8195 32.5516 9.4556 14.9067c.2241.3499.6162.553 1.0307.5304h3.4954c.661.0113 1.1988-.5191 1.1988-1.1849 0-.0112 0-.0112 0-.0225v-31.5739c-.0112-.677-.549-1.2187-1.2212-1.2074-.3585 0-.7058.1693-.9298.4627l-13.0295 16.6445c-.2913.4401-.2913 1.0043 0 1.4444z"/><path d="m18.1988 47.9887h6.229c.661.0113 1.1988-.5191 1.1988-1.1849 0-.0112 0-.0112 0-.0225v-8.012c-.0112-.677-.5602-1.2187-1.2324-1.2074-.3585 0-.7058.1693-.9299.4514l-6.229 8.0119c-.4034.5417-.2913 1.309.2576 1.7153.2017.1579.4482.2482.7059.2482z"/></g></svg>