<svg fill="none" height="64" viewBox="0 0 64 64" width="64" xmlns="http://www.w3.org/2000/svg" xmlns:xlink="http://www.w3.org/1999/xlink"><linearGradient id="a" gradientUnits="userSpaceOnUse" x1="0" x2="64" y1="32" y2="32"><stop offset="0" stop-color="#5c5cff"/><stop offset="1" stop-color="#8960ff"/></linearGradient><clipPath id="b"><path d="m0 0h64v64h-64z"/></clipPath><clipPath id="c"><path d="m16 16h32v32h-32z"/></clipPath><g clip-path="url(#b)"><path d="m0 0h64v64h-64z" fill="#fff"/><path d="m0 0h64v64h-64z" fill="url(#a)"/><g clip-path="url(#c)"><path d="m16 17.5c0-.8281.6719-1.5 1.5-1.5h7c.8313 0 1.5.6719 1.5 1.5s-.6687 1.5-1.5 1.5h-5.5v5.5c0 .8313-.6719 1.5-1.5 1.5s-1.5-.6687-1.5-1.5zm13.0375 4.5h5.925c.625 0 1.1812.3875 1.4.975l.3875 1.025h2.25c1.6562 0 3 1.3438 3 3v10c0 1.6562-1.3438 3-3 3h-14c-1.6562 0-3-1.3438-3-3v-10c0-1.6562 1.3438-3 3-3h2.25l.3875-1.025c.2187-.5875.775-.975 1.4-.975zm2.9625 14c2.2062 0 4-1.7938 4-4s-1.7938-4-4-4-4 1.7938-4 4 1.7938 4 4 4zm14.5-20c.8313 0 1.5.6719 1.5 1.5v7c0 .8313-.6687 1.5-1.5 1.5s-1.5-.6687-1.5-1.5v-5.5h-5.5c-.8313 0-1.5-.6719-1.5-1.5s.6687-1.5 1.5-1.5zm-30.5 23.5c0-.8313.6719-1.5 1.5-1.5s1.5.6687 1.5 1.5v5.5h5.5c.8313 0 1.5.6687 1.5 1.5s-.6687 1.5-1.5 1.5h-7c-.8281 0-1.5-.6687-1.5-1.5zm23.5 8.5c-.8313 0-1.5-.6687-1.5-1.5s.6687-1.5 1.5-1.5h5.5v-5.5c0-.8313.6687-1.5 1.5-1.5s1.5.6687 1.5 1.5v7c0 .8313-.6687 1.5-1.5 1.5z" fill="#fff"/></g></g></svg>