<svg width="24" height="24" viewBox="0 0 24 24" fill="none" xmlns="http://www.w3.org/2000/svg">
<path d="M0 1.125C0 0.503906 0.503906 0 1.125 0H6.375C6.99844 0 7.5 0.503906 7.5 1.125C7.5 1.74609 6.99844 2.25 6.375 2.25H2.25V6.375C2.25 6.99844 1.74609 7.5 1.125 7.5C0.503906 7.5 0 6.99844 0 6.375V1.125ZM9.77813 4.5H14.2219C14.6906 4.5 15.1078 4.79063 15.2719 5.23125L15.5625 6H17.25C18.4922 6 19.5 7.00781 19.5 8.25V15.75C19.5 16.9922 18.4922 18 17.25 18H6.75C5.50781 18 4.5 16.9922 4.5 15.75V8.25C4.5 7.00781 5.50781 6 6.75 6H8.4375L8.72812 5.23125C8.89219 4.79063 9.30938 4.5 9.77813 4.5ZM12 15C13.6547 15 15 13.6547 15 12C15 10.3453 13.6547 9 12 9C10.3453 9 9 10.3453 9 12C9 13.6547 10.3453 15 12 15ZM22.875 0C23.4984 0 24 0.503906 24 1.125V6.375C24 6.99844 23.4984 7.5 22.875 7.5C22.2516 7.5 21.75 6.99844 21.75 6.375V2.25H17.625C17.0016 2.25 16.5 1.74609 16.5 1.125C16.5 0.503906 17.0016 0 17.625 0H22.875ZM0 17.625C0 17.0016 0.503906 16.5 1.125 16.5C1.74609 16.5 2.25 17.0016 2.25 17.625V21.75H6.375C6.99844 21.75 7.5 22.2516 7.5 22.875C7.5 23.4984 6.99844 24 6.375 24H1.125C0.503906 24 0 23.4984 0 22.875V17.625ZM17.625 24C17.0016 24 16.5 23.4984 16.5 22.875C16.5 22.2516 17.0016 21.75 17.625 21.75H21.75V17.625C21.75 17.0016 22.2516 16.5 22.875 16.5C23.4984 16.5 24 17.0016 24 17.625V22.875C24 23.4984 23.4984 24 22.875 24H17.625Z" fill="black"/>
</svg>
